<mxfile host="app.diagrams.net" modified="2023-10-10T17:27:51.282Z" agent="Mozilla/5.0 (Windows NT 10.0; Win64; x64) AppleWebKit/537.36 (KHTML, like Gecko) Chrome/117.0.0.0 Safari/537.36" etag="HGzg-NbMVqLL4XI4JCq9" version="21.8.2" type="device">
  <diagram name="Page-1" id="J0iEwaFg-9LSp8t2LMrL">
    <mxGraphModel dx="1372" dy="2129" grid="1" gridSize="10" guides="1" tooltips="1" connect="1" arrows="1" fold="1" page="1" pageScale="1" pageWidth="850" pageHeight="1100" math="0" shadow="0">
      <root>
        <mxCell id="0" />
        <mxCell id="1" parent="0" />
        <mxCell id="J92_ZmVQXBoli9YoHsA_-1" value="User" style="shape=umlActor;verticalLabelPosition=bottom;verticalAlign=top;html=1;outlineConnect=0;" vertex="1" parent="1">
          <mxGeometry x="100" y="140" width="30" height="60" as="geometry" />
        </mxCell>
        <mxCell id="J92_ZmVQXBoli9YoHsA_-2" value="&lt;b&gt;User&lt;/b&gt;: The user&lt;br&gt;&lt;b&gt;User Interaction&lt;/b&gt;: The interface that the user uses.&lt;br&gt;&lt;b style=&quot;border-color: var(--border-color);&quot;&gt;File Manager: &lt;/b&gt;&lt;span style=&quot;border-color: var(--border-color);&quot;&gt;Object that manages user files&lt;br&gt;&lt;b&gt;User Interaction 2&lt;/b&gt;&lt;/span&gt;: The interface that the user uses.&lt;br&gt;&lt;b&gt;Database Server&lt;/b&gt;: Where the User&#39;s files are stored" style="rounded=1;whiteSpace=wrap;html=1;align=left;" vertex="1" parent="1">
          <mxGeometry x="30" y="270" width="310" height="80" as="geometry" />
        </mxCell>
        <mxCell id="J92_ZmVQXBoli9YoHsA_-3" style="edgeStyle=orthogonalEdgeStyle;rounded=0;orthogonalLoop=1;jettySize=auto;html=1;endArrow=none;endFill=0;" edge="1" parent="1">
          <mxGeometry relative="1" as="geometry">
            <mxPoint x="764" y="180" as="targetPoint" />
            <mxPoint x="594" y="180.07692307692332" as="sourcePoint" />
          </mxGeometry>
        </mxCell>
        <mxCell id="J92_ZmVQXBoli9YoHsA_-4" value="&amp;lt;&amp;lt;user interaction&amp;gt;&amp;gt;&lt;br&gt;User Interaction" style="whiteSpace=wrap;html=1;aspect=fixed;rounded=1;" vertex="1" parent="1">
          <mxGeometry x="320" y="140" width="80" height="80" as="geometry" />
        </mxCell>
        <mxCell id="J92_ZmVQXBoli9YoHsA_-5" style="edgeStyle=orthogonalEdgeStyle;rounded=0;orthogonalLoop=1;jettySize=auto;html=1;entryX=-0.01;entryY=0.377;entryDx=0;entryDy=0;entryPerimeter=0;startArrow=none;startFill=0;endArrow=none;endFill=0;" edge="1" parent="1" source="J92_ZmVQXBoli9YoHsA_-1" target="J92_ZmVQXBoli9YoHsA_-4">
          <mxGeometry relative="1" as="geometry" />
        </mxCell>
        <mxCell id="J92_ZmVQXBoli9YoHsA_-6" value="M1. File Request" style="text;html=1;align=center;verticalAlign=middle;resizable=0;points=[];autosize=1;strokeColor=default;fillColor=none;rounded=1;" vertex="1" parent="1">
          <mxGeometry x="195" y="110" width="110" height="30" as="geometry" />
        </mxCell>
        <mxCell id="J92_ZmVQXBoli9YoHsA_-7" value="Store New Podcast Interaction Diagram" style="rounded=1;whiteSpace=wrap;html=1;" vertex="1" parent="1">
          <mxGeometry x="460" y="-49" width="260" height="60" as="geometry" />
        </mxCell>
        <mxCell id="J92_ZmVQXBoli9YoHsA_-8" value="M3. Location Request" style="text;html=1;align=center;verticalAlign=middle;resizable=0;points=[];autosize=1;strokeColor=default;fillColor=none;rounded=1;" vertex="1" parent="1">
          <mxGeometry x="589" y="110" width="140" height="30" as="geometry" />
        </mxCell>
        <mxCell id="J92_ZmVQXBoli9YoHsA_-10" value="&amp;lt;&amp;lt;user interaction&amp;gt;&amp;gt;&lt;br style=&quot;border-color: var(--border-color);&quot;&gt;User Interaction 2" style="whiteSpace=wrap;html=1;aspect=fixed;rounded=1;" vertex="1" parent="1">
          <mxGeometry x="724" y="139" width="80" height="80" as="geometry" />
        </mxCell>
        <mxCell id="J92_ZmVQXBoli9YoHsA_-11" value="&amp;lt;&amp;lt;external system&amp;gt;&amp;gt;&lt;br&gt;Database Server" style="whiteSpace=wrap;html=1;aspect=fixed;" vertex="1" parent="1">
          <mxGeometry x="884" y="139" width="80" height="80" as="geometry" />
        </mxCell>
        <mxCell id="J92_ZmVQXBoli9YoHsA_-12" value="" style="endArrow=blockThin;html=1;rounded=0;strokeWidth=3;endFill=1;" edge="1" parent="1">
          <mxGeometry width="50" height="50" relative="1" as="geometry">
            <mxPoint x="624" y="153" as="sourcePoint" />
            <mxPoint x="694" y="153" as="targetPoint" />
            <Array as="points">
              <mxPoint x="664" y="153" />
            </Array>
          </mxGeometry>
        </mxCell>
        <mxCell id="J92_ZmVQXBoli9YoHsA_-13" value="" style="endArrow=blockThin;html=1;rounded=0;strokeWidth=3;endFill=1;" edge="1" parent="1">
          <mxGeometry width="50" height="50" relative="1" as="geometry">
            <mxPoint x="216" y="150" as="sourcePoint" />
            <mxPoint x="286" y="150" as="targetPoint" />
            <Array as="points">
              <mxPoint x="256" y="150" />
            </Array>
          </mxGeometry>
        </mxCell>
        <mxCell id="J92_ZmVQXBoli9YoHsA_-18" value="M6. Send Acknowledgment" style="rounded=1;whiteSpace=wrap;html=1;" vertex="1" parent="1">
          <mxGeometry x="599" y="231" width="120" height="30" as="geometry" />
        </mxCell>
        <mxCell id="J92_ZmVQXBoli9YoHsA_-19" value="" style="endArrow=blockThin;html=1;rounded=0;strokeWidth=3;endFill=1;entryX=0.25;entryY=1;entryDx=0;entryDy=0;" edge="1" parent="1">
          <mxGeometry width="50" height="50" relative="1" as="geometry">
            <mxPoint x="704" y="220" as="sourcePoint" />
            <mxPoint x="614" y="221" as="targetPoint" />
            <Array as="points" />
          </mxGeometry>
        </mxCell>
        <mxCell id="J92_ZmVQXBoli9YoHsA_-20" value="M8. Display File" style="rounded=1;whiteSpace=wrap;html=1;" vertex="1" parent="1">
          <mxGeometry x="190" y="211" width="120" height="30" as="geometry" />
        </mxCell>
        <mxCell id="J92_ZmVQXBoli9YoHsA_-21" value="" style="endArrow=blockThin;html=1;rounded=0;strokeWidth=3;endFill=1;entryX=0.25;entryY=1;entryDx=0;entryDy=0;" edge="1" parent="1">
          <mxGeometry width="50" height="50" relative="1" as="geometry">
            <mxPoint x="287" y="201" as="sourcePoint" />
            <mxPoint x="222" y="201" as="targetPoint" />
            <Array as="points" />
          </mxGeometry>
        </mxCell>
        <mxCell id="J92_ZmVQXBoli9YoHsA_-22" value="&lt;font style=&quot;font-size: 14px;&quot;&gt;M1. User is logged in and request to store a file&lt;br&gt;M2. User Interaction sends File request to the File manager&lt;br&gt;&lt;span style=&quot;&quot;&gt;&lt;span style=&quot;white-space: pre;&quot;&gt;&amp;nbsp;&amp;nbsp;&amp;nbsp;&amp;nbsp;&lt;/span&gt;&lt;/span&gt;M2a. Send file rejection message if file is invalid&lt;br&gt;M3. File manager sends a location request to the customer interaction 2&lt;br&gt;M4. User interaction 2 sends the location request to the database server&lt;br&gt;&lt;span style=&quot;white-space: pre;&quot;&gt;&#x9;&lt;/span&gt;M4a. Send location rejection message if location is invalid&lt;br style=&quot;border-color: var(--border-color);&quot;&gt;M5. The data base server sends the location of the file back to the user interaction 2&lt;br&gt;M6, M7. An acknowledgment is sent to the file manager and then the user interaction&lt;br&gt;M8. The Files are displayed&lt;br&gt;&lt;/font&gt;" style="rounded=1;whiteSpace=wrap;html=1;align=left;" vertex="1" parent="1">
          <mxGeometry x="80" y="380" width="580" height="170" as="geometry" />
        </mxCell>
        <mxCell id="J92_ZmVQXBoli9YoHsA_-25" value="&amp;lt;&amp;lt;entity&amp;gt;&amp;gt;&lt;br&gt;File Manager" style="whiteSpace=wrap;html=1;aspect=fixed;rounded=1;" vertex="1" parent="1">
          <mxGeometry x="512" y="140" width="80" height="80" as="geometry" />
        </mxCell>
        <mxCell id="J92_ZmVQXBoli9YoHsA_-26" value="" style="endArrow=none;html=1;rounded=0;exitX=1;exitY=0.5;exitDx=0;exitDy=0;entryX=0;entryY=0.5;entryDx=0;entryDy=0;" edge="1" parent="1" source="J92_ZmVQXBoli9YoHsA_-4" target="J92_ZmVQXBoli9YoHsA_-25">
          <mxGeometry width="50" height="50" relative="1" as="geometry">
            <mxPoint x="510" y="350" as="sourcePoint" />
            <mxPoint x="560" y="300" as="targetPoint" />
          </mxGeometry>
        </mxCell>
        <mxCell id="J92_ZmVQXBoli9YoHsA_-27" value="" style="endArrow=blockThin;html=1;rounded=0;strokeWidth=3;endFill=1;" edge="1" parent="1">
          <mxGeometry width="50" height="50" relative="1" as="geometry">
            <mxPoint x="496" y="218" as="sourcePoint" />
            <mxPoint x="419" y="218" as="targetPoint" />
            <Array as="points" />
          </mxGeometry>
        </mxCell>
        <mxCell id="J92_ZmVQXBoli9YoHsA_-28" value="" style="endArrow=blockThin;html=1;rounded=0;strokeWidth=3;endFill=1;" edge="1" parent="1">
          <mxGeometry width="50" height="50" relative="1" as="geometry">
            <mxPoint x="424" y="150" as="sourcePoint" />
            <mxPoint x="494" y="150" as="targetPoint" />
            <Array as="points">
              <mxPoint x="464" y="150" />
            </Array>
          </mxGeometry>
        </mxCell>
        <mxCell id="J92_ZmVQXBoli9YoHsA_-29" value="M2. Send File Request" style="text;html=1;align=center;verticalAlign=middle;resizable=0;points=[];autosize=1;strokeColor=default;fillColor=none;rounded=1;" vertex="1" parent="1">
          <mxGeometry x="382" y="106" width="150" height="30" as="geometry" />
        </mxCell>
        <mxCell id="J92_ZmVQXBoli9YoHsA_-30" style="edgeStyle=orthogonalEdgeStyle;rounded=0;orthogonalLoop=1;jettySize=auto;html=1;endArrow=none;endFill=0;exitX=1;exitY=0.5;exitDx=0;exitDy=0;entryX=0;entryY=0.5;entryDx=0;entryDy=0;" edge="1" parent="1" source="J92_ZmVQXBoli9YoHsA_-10" target="J92_ZmVQXBoli9YoHsA_-11">
          <mxGeometry relative="1" as="geometry">
            <mxPoint x="884" y="181" as="targetPoint" />
            <mxPoint x="752" y="181.07692307692332" as="sourcePoint" />
          </mxGeometry>
        </mxCell>
        <mxCell id="J92_ZmVQXBoli9YoHsA_-31" value="M4. Send Location Request" style="text;html=1;align=center;verticalAlign=middle;resizable=0;points=[];autosize=1;strokeColor=default;fillColor=none;rounded=1;" vertex="1" parent="1">
          <mxGeometry x="759" y="99" width="170" height="30" as="geometry" />
        </mxCell>
        <mxCell id="J92_ZmVQXBoli9YoHsA_-33" value="" style="endArrow=blockThin;html=1;rounded=0;strokeWidth=3;endFill=1;" edge="1" parent="1">
          <mxGeometry width="50" height="50" relative="1" as="geometry">
            <mxPoint x="814" y="150" as="sourcePoint" />
            <mxPoint x="870" y="150" as="targetPoint" />
            <Array as="points">
              <mxPoint x="854" y="150" />
            </Array>
          </mxGeometry>
        </mxCell>
        <mxCell id="J92_ZmVQXBoli9YoHsA_-34" value="M5. Send Location" style="rounded=1;whiteSpace=wrap;html=1;" vertex="1" parent="1">
          <mxGeometry x="780" y="232" width="120" height="30" as="geometry" />
        </mxCell>
        <mxCell id="J92_ZmVQXBoli9YoHsA_-35" value="" style="endArrow=blockThin;html=1;rounded=0;strokeWidth=3;endFill=1;" edge="1" parent="1">
          <mxGeometry width="50" height="50" relative="1" as="geometry">
            <mxPoint x="873" y="221" as="sourcePoint" />
            <mxPoint x="810" y="221" as="targetPoint" />
            <Array as="points" />
          </mxGeometry>
        </mxCell>
        <mxCell id="J92_ZmVQXBoli9YoHsA_-37" value="M7. Send Acknowledgment" style="rounded=1;whiteSpace=wrap;html=1;" vertex="1" parent="1">
          <mxGeometry x="398" y="226" width="120" height="30" as="geometry" />
        </mxCell>
        <mxCell id="J92_ZmVQXBoli9YoHsA_-38" value="" style="endArrow=blockThin;html=1;rounded=0;strokeWidth=3;endFill=1;" edge="1" parent="1">
          <mxGeometry width="50" height="50" relative="1" as="geometry">
            <mxPoint x="499" y="86" as="sourcePoint" />
            <mxPoint x="422" y="86" as="targetPoint" />
            <Array as="points" />
          </mxGeometry>
        </mxCell>
        <mxCell id="J92_ZmVQXBoli9YoHsA_-40" value="M2a. Send File Rejection" style="text;html=1;align=center;verticalAlign=middle;resizable=0;points=[];autosize=1;strokeColor=default;fillColor=none;rounded=1;" vertex="1" parent="1">
          <mxGeometry x="378" y="47" width="160" height="30" as="geometry" />
        </mxCell>
        <mxCell id="J92_ZmVQXBoli9YoHsA_-42" value="" style="endArrow=blockThin;html=1;rounded=0;strokeWidth=3;endFill=1;" edge="1" parent="1">
          <mxGeometry width="50" height="50" relative="1" as="geometry">
            <mxPoint x="887" y="84" as="sourcePoint" />
            <mxPoint x="810" y="84" as="targetPoint" />
            <Array as="points" />
          </mxGeometry>
        </mxCell>
        <mxCell id="J92_ZmVQXBoli9YoHsA_-43" value="M4a. Send Location Rejection" style="text;html=1;align=center;verticalAlign=middle;resizable=0;points=[];autosize=1;strokeColor=default;fillColor=none;rounded=1;" vertex="1" parent="1">
          <mxGeometry x="755" y="45" width="180" height="30" as="geometry" />
        </mxCell>
        <mxCell id="J92_ZmVQXBoli9YoHsA_-46" value="BEANSTALK&lt;br&gt;Cal Crosby, Ashton Stroud, Sarah Hardin, Jon Story" style="text;html=1;align=center;verticalAlign=middle;resizable=0;points=[];autosize=1;strokeColor=none;fillColor=none;" vertex="1" parent="1">
          <mxGeometry x="24" y="6" width="300" height="40" as="geometry" />
        </mxCell>
      </root>
    </mxGraphModel>
  </diagram>
</mxfile>
